<?xml version="1.0" encoding="utf-8"?>
<!-- Generator: Adobe Illustrator 26.0.2, SVG Export Plug-In . SVG Version: 6.00 Build 0)  -->
<svg version="1.1" id="Layer_1" xmlns="http://www.w3.org/2000/svg" xmlns:xlink="http://www.w3.org/1999/xlink" x="0px" y="0px"
	 viewBox="0 0 81.1 81.7" style="enable-background:new 0 0 81.1 81.7;" xml:space="preserve">
<style type="text/css">
	.st0{fill:url(#SVGID_1_);}
	.st1{fill:#EBEBEC;}
	.st2{display:none;}
	.st3{display:inline;fill:url(#SVGID_00000066505295709329110310000000228859406423026073_);}
	.st4{fill:#FFFFFF;stroke:#34449C;stroke-miterlimit:10;}
</style>
<g id="Layer_1_00000079472344244914014910000015004711810795313286_">
	
		<linearGradient id="SVGID_1_" gradientUnits="userSpaceOnUse" x1="16.3919" y1="113.407" x2="64.7081" y2="197.093" gradientTransform="matrix(1 0 0 1 0 -114.4)">
		<stop  offset="0" style="stop-color:#CCCCCC"/>
		<stop  offset="0" style="stop-color:#72CAEB"/>
		<stop  offset="1" style="stop-color:#1C2B5D"/>
	</linearGradient>
	<path class="st0" d="M61.1,81.7H20c-11,0-20-9-20-20V20C0,9,9,0,20,0h41.1c11,0,20,9,20,20v41.7C81.1,72.7,72.1,81.7,61.1,81.7z"/>
	<path class="st1" d="M59.8,78.9H21.4c-10.3,0-18.7-8.4-18.7-18.7V21.3C2.7,11,11.1,2.6,21.4,2.6h38.4c10.3,0,18.7,8.4,18.7,18.7
		v38.9C78.5,70.5,70.1,78.9,59.8,78.9z"/>
</g>
<g id="Layer_2_00000183938255305031168350000001407190872325534382_" class="st2">
	
		<linearGradient id="SVGID_00000075153760871030862480000004148478740228172182_" gradientUnits="userSpaceOnUse" x1="37.0219" y1="88.9346" x2="37.0219" y2="63.9097" gradientTransform="matrix(1.0679 0 0 -1.4329 0.4643 137.5054)">
		<stop  offset="0" style="stop-color:#CCCCCC"/>
		<stop  offset="0" style="stop-color:#DADADA;stop-opacity:0.9693"/>
		<stop  offset="0" style="stop-color:#EBEBEB;stop-opacity:0.9162"/>
		<stop  offset="0" style="stop-color:#F6F6F6;stop-opacity:0.8502"/>
		<stop  offset="0" style="stop-color:#FDFDFD;stop-opacity:0.7574"/>
		<stop  offset="0" style="stop-color:#FFFFFF;stop-opacity:0.5"/>
		<stop  offset="1" style="stop-color:#F1F2F2;stop-opacity:0"/>
	</linearGradient>
	<path style="display:inline;fill:url(#SVGID_00000075153760871030862480000004148478740228172182_);" d="M71,45.9V35.8
		C71,21.6,64.1,10,55.7,10H24.3C15.9,10.1,9,21.7,9,35.9V46L71,45.9L71,45.9z"/>
</g>
<circle class="st4" cx="17.7" cy="20" r="7.5"/>
<circle class="st4" cx="39.5" cy="40.8" r="7.5"/>
<circle class="st4" cx="59.6" cy="21.1" r="7.5"/>
<circle class="st4" cx="17.7" cy="62.9" r="7.5"/>
<circle class="st4" cx="59.6" cy="64.9" r="7.5"/>
</svg>
