<?xml version="1.0" encoding="utf-8"?>
<!-- Generator: Adobe Illustrator 26.0.2, SVG Export Plug-In . SVG Version: 6.00 Build 0)  -->
<svg version="1.1" id="Layer_1" xmlns="http://www.w3.org/2000/svg" xmlns:xlink="http://www.w3.org/1999/xlink" x="0px" y="0px"
	 viewBox="0 0 200 200" style="enable-background:new 0 0 200 200;" xml:space="preserve">
<style type="text/css">
	.st0{fill:url(#SVGID_1_);}
	.st1{fill:#EBEBEC;}
	.st2{fill:#004586;}
	.st3{fill:url(#SVGID_00000025422683049950133890000017096736995191306665_);}
</style>
<linearGradient id="SVGID_1_" gradientUnits="userSpaceOnUse" x1="61.2031" y1="55.1678" x2="109.5093" y2="138.8364" gradientTransform="matrix(1 0 0 1 0 2)">
	<stop  offset="0" style="stop-color:#CCCCCC"/>
	<stop  offset="0" style="stop-color:#72CAEB"/>
	<stop  offset="1" style="stop-color:#1C2B5D"/>
</linearGradient>
<path class="st0" d="M105.9,139.9H64.8c-11,0-20-9-20-20V78.2c0-11,9-20,20-20h41.1c11,0,20,9,20,20v41.7
	C125.9,130.9,116.9,139.9,105.9,139.9z"/>
<path class="st1" d="M104.6,137.1H66.2c-10.3,0-18.7-8.4-18.7-18.7V79.5c0-10.3,8.4-18.7,18.7-18.7h38.4c10.3,0,18.7,8.4,18.7,18.7
	v38.9C123.3,128.7,114.9,137.1,104.6,137.1z"/>
<rect x="62.6" y="73.4" class="st2" width="5" height="50"/>
<rect x="102.6" y="73.4" class="st2" width="5" height="50"/>
<rect x="82.6" y="73.4" class="st2" width="5" height="50"/>
<linearGradient id="SVGID_00000115501840190225984610000013811796773803240625_" gradientUnits="userSpaceOnUse" x1="85.7578" y1="129.0731" x2="85.7578" y2="104.3958" gradientTransform="matrix(1.0679 0 0 -1.4329 -6.5158 253.4188)">
	<stop  offset="0" style="stop-color:#CCCCCC"/>
	<stop  offset="0" style="stop-color:#DADADA;stop-opacity:0.9693"/>
	<stop  offset="0" style="stop-color:#EBEBEB;stop-opacity:0.9162"/>
	<stop  offset="0" style="stop-color:#F6F6F6;stop-opacity:0.8502"/>
	<stop  offset="0" style="stop-color:#FDFDFD;stop-opacity:0.7574"/>
	<stop  offset="0" style="stop-color:#FFFFFF;stop-opacity:0.5"/>
	<stop  offset="1" style="stop-color:#F1F2F2;stop-opacity:0"/>
</linearGradient>
<path style="fill:url(#SVGID_00000115501840190225984610000013811796773803240625_);" d="M116.1,103.8v-10c0-14-6.9-25.4-15.3-25.4
	H69.3C60.9,68.5,54,79.9,54,93.9v10H116.1z"/>
</svg>
