<?xml version="1.0" encoding="utf-8"?>
<!-- Generator: Adobe Illustrator 26.0.2, SVG Export Plug-In . SVG Version: 6.00 Build 0)  -->
<svg version="1.1" id="Layer_1" xmlns="http://www.w3.org/2000/svg" xmlns:xlink="http://www.w3.org/1999/xlink" x="0px" y="0px"
	 viewBox="0 0 81.1 81.7" style="enable-background:new 0 0 81.1 81.7;" xml:space="preserve">
<style type="text/css">
	.st0{fill:url(#SVGID_1_);}
	.st1{fill:#EBEBEC;}
	.st2{fill:#004586;}
	.st3{fill:url(#SVGID_00000163058232115066090720000005711927756435011482_);}
</style>
<linearGradient id="SVGID_1_" gradientUnits="userSpaceOnUse" x1="16.3919" y1="86.593" x2="64.7081" y2="2.907" gradientTransform="matrix(1 0 0 -1 0 85.6)">
	<stop  offset="0" style="stop-color:#CCCCCC"/>
	<stop  offset="0" style="stop-color:#72CAEB"/>
	<stop  offset="1" style="stop-color:#1C2B5D"/>
</linearGradient>
<path class="st0" d="M61.1,81.7H20c-11,0-20-9-20-20V20C0,9,9,0,20,0h41.1c11,0,20,9,20,20v41.7C81.1,72.7,72.1,81.7,61.1,81.7z"/>
<path class="st1" d="M59.8,78.9H21.4c-10.3,0-18.7-8.4-18.7-18.7V21.3C2.7,11,11.1,2.6,21.4,2.6h38.4c10.3,0,18.7,8.4,18.7,18.7
	v38.9C78.5,70.5,70.1,78.9,59.8,78.9z"/>
<rect x="17.8" y="15.2" class="st2" width="5" height="50"/>
<rect x="57.8" y="15.2" class="st2" width="5" height="50"/>
<rect x="37.8" y="15.2" class="st2" width="5" height="50"/>
<linearGradient id="SVGID_00000061447143728664327650000001894200828719549570_" gradientUnits="userSpaceOnUse" x1="40.9438" y1="12.7269" x2="40.9438" y2="37.4042" gradientTransform="matrix(1.0679 0 0 1.4329 -3.4739 -7.9664)">
	<stop  offset="0" style="stop-color:#CCCCCC"/>
	<stop  offset="0" style="stop-color:#DADADA;stop-opacity:0.9693"/>
	<stop  offset="0" style="stop-color:#EBEBEB;stop-opacity:0.9162"/>
	<stop  offset="0" style="stop-color:#F6F6F6;stop-opacity:0.8502"/>
	<stop  offset="0" style="stop-color:#FDFDFD;stop-opacity:0.7574"/>
	<stop  offset="0" style="stop-color:#FFFFFF;stop-opacity:0.5"/>
	<stop  offset="1" style="stop-color:#F1F2F2;stop-opacity:0"/>
</linearGradient>
<path style="fill:url(#SVGID_00000061447143728664327650000001894200828719549570_);" d="M71.3,45.6v-10c0-14-6.9-25.4-15.3-25.4
	H24.5C16.1,10.3,9.2,21.7,9.2,35.7v10L71.3,45.6L71.3,45.6z"/>
</svg>
